<svg width="24" height="24" viewBox="0 0 24 24" fill="none" xmlns="http://www.w3.org/2000/svg">
<path d="M8.27037 22.7501H4.23037C2.22037 22.7501 1.25037 21.8201 1.25037 19.9001V4.10008C1.25037 2.18008 2.23037 1.25008 4.23037 1.25008H8.27037C10.2804 1.25008 11.2504 2.18008 11.2504 4.10008V19.9001C11.2504 21.8201 10.2704 22.7501 8.27037 22.7501ZM4.23037 2.75008C2.96037 2.75008 2.75037 3.09008 2.75037 4.10008V19.9001C2.75037 20.9101 2.96037 21.2501 4.23037 21.2501H8.27037C9.54037 21.2501 9.75037 20.9101 9.75037 19.9001V4.10008C9.75037 3.09008 9.54037 2.75008 8.27037 2.75008H4.23037Z" fill="#606060"/>
<path d="M19.7699 13.7501H15.7299C13.7199 13.7501 12.7499 12.8201 12.7499 10.9001V4.10008C12.7499 2.18008 13.7299 1.25008 15.7299 1.25008H19.7699C21.7799 1.25008 22.7499 2.18008 22.7499 4.10008V10.9001C22.7499 12.8201 21.7699 13.7501 19.7699 13.7501ZM15.7299 2.75008C14.4599 2.75008 14.2499 3.09008 14.2499 4.10008V10.9001C14.2499 11.9101 14.4599 12.2501 15.7299 12.2501H19.7699C21.0399 12.2501 21.2499 11.9101 21.2499 10.9001V4.10008C21.2499 3.09008 21.0399 2.75008 19.7699 2.75008H15.7299Z" fill="#606060"/>
<path d="M19.7699 22.7496H15.7299C13.7199 22.7496 12.7499 21.8196 12.7499 19.8996V18.0996C12.7499 16.1796 13.7299 15.2496 15.7299 15.2496H19.7699C21.7799 15.2496 22.7499 16.1796 22.7499 18.0996V19.8996C22.7499 21.8196 21.7699 22.7496 19.7699 22.7496ZM15.7299 16.7496C14.4599 16.7496 14.2499 17.0896 14.2499 18.0996V19.8996C14.2499 20.9096 14.4599 21.2496 15.7299 21.2496H19.7699C21.0399 21.2496 21.2499 20.9096 21.2499 19.8996V18.0996C21.2499 17.0896 21.0399 16.7496 19.7699 16.7496H15.7299Z" fill="#606060"/>
</svg>
