<?xml version="1.0" encoding="iso-8859-1"?>
<!-- Generator: Adobe Illustrator 19.0.0, SVG Export Plug-In . SVG Version: 6.00 Build 0)  -->
<svg version="1.1" id="Capa_1" xmlns="http://www.w3.org/2000/svg" xmlns:xlink="http://www.w3.org/1999/xlink" x="0px" y="0px"
	 viewBox="0 0 78.147 78.147" style="enable-background:new 0 0 78.147 78.147;" xml:space="preserve">
<g>
	<path d="M36.78,10.715h-3c-18.591,0-33.717,15.125-33.717,33.715c0,18.591,15.125,33.716,33.717,33.717
		c18.591,0,33.716-15.125,33.716-33.717v-3H36.78V10.715z M61.335,47.429c-1.5,13.878-13.285,24.717-27.555,24.717
		C18.497,72.145,6.063,59.712,6.063,44.429c0-14.269,10.839-26.054,24.717-27.554v30.554H61.335z"  fill="#606060"/>
	<path d="M44.367,0h-3v36.717h36.717v-3C78.084,15.125,62.959,0,44.367,0z M47.367,30.717V6.161
		C60.26,7.555,70.529,17.824,71.923,30.717H47.367z"  fill="#606060"/>
</g>
<g>
</g>
<g>
</g>
<g>
</g>
<g>
</g>
<g>
</g>
<g>
</g>
<g>
</g>
<g>
</g>
<g>
</g>
<g>
</g>
<g>
</g>
<g>
</g>
<g>
</g>
<g>
</g>
<g>
</g>
</svg>
