<?xml version="1.0" encoding="utf-8"?>
<!-- Svg Vector Icons : http://www.onlinewebfonts.com/icon -->
<!DOCTYPE svg PUBLIC "-//W3C//DTD SVG 1.1//EN" "http://www.w3.org/Graphics/SVG/1.1/DTD/svg11.dtd">
<svg version="1.1" xmlns="http://www.w3.org/2000/svg" xmlns:xlink="http://www.w3.org/1999/xlink" x="0px" y="0px" viewBox="0 0 1000 1000" enable-background="new 0 0 1000 1000" xml:space="preserve">
<metadata> Svg Vector Icons : http://www.onlinewebfonts.com/icon </metadata>
<g><path d="M180.8,793.6c-26.8,26.8-26.8,70.3,0,97.1c26.8,26.8,70.3,26.8,97.1,0l184.8-184.9l-97.1-97.1L180.8,793.6L180.8,793.6z M373.9,362.2c11.2-24.3,17.6-51.3,17.7-79.8c0-105.4-85.4-190.8-190.8-190.8C95.4,91.6,10,177,10,282.4c0,105.4,85.4,190.8,190.8,190.8c26.5,0,51.7-5.4,74.7-15.2L710,892.5c26.8,26.8,70.3,26.8,97.1,0c26.8-26.8,26.8-70.3,0-97.1L373.9,362.2L373.9,362.2z M619.6,549l70.1-70.1c15.5,7.1,32,11,48.7,11c30.1,0,60.1-11.4,83-34.3L990,287l-36.5-36.5L805.7,398.2c-4.7,4.7-10.8,7.1-17,7c-6.2,0-12.3-2.3-17-7l-6.9-6.9c-4.6-4.5-7-10.6-7.1-17c0-6.4,2.5-12.5,7.1-17l147.7-147.7l-44.6-44.6L720.2,312.6c-4.7,4.7-10.9,7-17,7c-6.2,0-12.4-2.3-17-7l-6.9-6.9c-4.5-4.5-7-10.6-7-17c0-6.5,2.5-12.5,7-17.1L827,123.9l-36.6-36.5L621.9,255.9c-22.1,22.1-34.2,51.6-34.2,83c0,14,2.8,27.6,7.5,40.4l-72.6,72.6L619.6,549L619.6,549z" fill="#FFF"/></g>
</svg>