<svg class="svg-icon" style="width: 1em;height: 1em;vertical-align: middle;fill: currentColor;overflow: hidden;" viewBox="0 0 1024 1024" version="1.1" xmlns="http://www.w3.org/2000/svg"><path d="M956.9 374.5C944.2 348 876 346.2 876 346.2l-208.9 1.3-94.4-209.1S533 76 499 76.2c-35 0.3-64.4 63.2-64.4 63.2L352 340.6c-3.8 9.3-49.7 4-58.3 4-48.5 0.2-97.1-0.3-145.5 2.3-23.8 1.3-60.9-3.7-76.9 16.9-16.3 21.1-2.1 66.7 13.4 84.7 24.3 28.2 51.7 53.8 81.2 76.5 35 26.9 68.4 56 102.4 84.5l-73.5 246.7s-9.6 68 12.5 85.4c24.5 19.3 81.1-11.9 81.1-11.9l222.4-148.2 207 149.6s65.4 25.1 91.1 4.1c21.5-17.5 4.2-81.7 4.2-81.7L753.4 596l177-146.5c0-0.1 40.9-44.9 26.5-75z" fill="#040000" /></svg>