<svg width="42" height="42" viewBox="0 0 42 42" fill="none" xmlns="http://www.w3.org/2000/svg">
<path d="M28.875 15.1022C28.1575 15.1022 27.5625 14.5072 27.5625 13.7897V11.3747C27.5625 9.53717 26.775 7.75217 25.41 6.50967C24.0275 5.24967 22.2425 4.67217 20.3525 4.84717C17.2025 5.14467 14.4375 8.36467 14.4375 11.7247V13.4222C14.4375 14.1397 13.8425 14.7347 13.125 14.7347C12.4075 14.7347 11.8125 14.1397 11.8125 13.4222V11.7072C11.8125 6.99967 15.61 2.65967 20.1075 2.22217C22.7325 1.97717 25.2525 2.79967 27.1775 4.56717C29.085 6.29967 30.1875 8.78467 30.1875 11.3747V13.7897C30.1875 14.5072 29.5925 15.1022 28.875 15.1022Z" fill="#DA001A"/>
<path d="M26.2496 39.8125H15.7497C7.66468 39.8125 6.15968 36.05 5.77468 32.3925L4.46218 21.91C4.26968 20.02 4.19968 17.3075 6.03718 15.2775C7.61218 13.5275 10.2197 12.6875 13.9997 12.6875H27.9996C31.7971 12.6875 34.4046 13.545 35.9621 15.2775C37.7821 17.3075 37.7296 20.02 37.5371 21.875L36.2246 32.3925C35.8396 36.05 34.3346 39.8125 26.2496 39.8125ZM13.9997 15.3125C11.0422 15.3125 9.01218 15.89 7.97968 17.045C7.12218 17.99 6.84218 19.4425 7.06968 21.6125L8.38218 32.095C8.67968 34.895 9.44968 37.205 15.7497 37.205H26.2496C32.5496 37.205 33.3196 34.9125 33.6171 32.13L34.9296 21.6125C35.1571 19.4775 34.8771 18.025 34.0196 17.0625C32.9871 15.89 30.9571 15.3125 27.9996 15.3125H13.9997Z" fill="#DA001A"/>
<path d="M26.9853 23.0123C26.0053 23.0123 25.2178 22.2248 25.2178 21.2623C25.2178 20.2998 26.0053 19.5123 26.9678 19.5123C27.9303 19.5123 28.7178 20.2998 28.7178 21.2623C28.7178 22.2248 27.9478 23.0123 26.9853 23.0123Z" fill="#DA001A"/>
<path d="M14.7353 23.0123C13.7553 23.0123 12.9678 22.2248 12.9678 21.2623C12.9678 20.2998 13.7553 19.5123 14.7178 19.5123C15.6803 19.5123 16.4678 20.2998 16.4678 21.2623C16.4678 22.2248 15.6978 23.0123 14.7353 23.0123Z" fill="#DA001A"/>
</svg>
